<svg xmlns="http://www.w3.org/2000/svg" viewBox="0 0 3200 1300">
    <defs>
        <style>
            .logo-fill {
                fill: #0d1b3e;
            }
            .mesh-lines {
                fill: none;
                stroke: #0d1b3e;
                stroke-width: 22;
                stroke-linecap: round;
                stroke-linejoin: round;
            }
            .nodes {
                fill: #0d1b3e;
            }
            .text-main {
                font-family: 'Arial', 'Helvetica', sans-serif;
                fill: #0d1b3e;
            }
        </style>
    </defs>

    <g transform="translate(150, 150)">

        <path class="mesh-lines"
            d="
        M 841.8,219.4 L 584.3,75.2
        M 841.8,219.4 L 447.7,240.7
        M 841.8,219.4 L 726.3,338.3
        M 841.8,219.4 L 932.2,507.8
        M 584.3,75.2  L 275.5,151.6
        M 584.3,75.2  L 447.7,240.7
        M 584.3,75.2  L 726.3,338.3
        M 275.5,151.6 L 447.7,240.7
        M 275.5,151.6 L 292.7,370.3
        M 275.5,151.6 L 95.2,406.4
        M 447.7,240.7 L 726.3,338.3
        M 447.7,240.7 L 292.7,370.3
        M 726.3,338.3 L 932.2,507.8
        M 726.3,338.3 L 760.4,584.3
        M 932.2,507.8 L 760.4,584.3
        M 932.2,507.8 L 804.3,781.5
        M 760.4,584.3 L 804.3,781.5
        M 760.4,584.3 L 541.3,712.1
        M 760.4,584.3 L 533.4,894.1
        M 804.3,781.5 L 541.3,712.1
        M 804.3,781.5 L 533.4,894.1
        M 541.3,712.1 L 533.4,894.1
        M 541.3,712.1 L 380.8,648.3
        M 533.4,894.1 L 380.8,648.3
        M 533.4,894.1 L 383.1,863.5
        M 380.8,648.3 L 292.7,370.3
        M 380.8,648.3 L 95.2,406.4
        M 380.8,648.3 L 145.4,682.0
        M 380.8,648.3 L 194.8,982.2
        M 292.7,370.3 L 95.2,406.4
        M 292.7,370.3 L 145.4,682.0
        M 95.2,406.4  L 145.4,682.0
        M 145.4,682.0 L 234.8,781.1
        M 383.1,863.5 L 194.8,982.2
        M 234.8,781.1 L 194.8,982.2
      " />

        <g transform="translate(380.8, 648.3) rotate(-49.16)">
            <path class="logo-fill"
                d="
             M -15,-15 
             L 233,-15 
             L 233,-65   L 360,0     L 233,65    L 233,15 
             L -15,15 
             Z"
            />
        </g>

        <g class="nodes">
            <circle cx="841.8" cy="219.4" r="36" />
            <circle cx="584.3" cy="75.2" r="36" />
            <circle cx="275.5" cy="151.6" r="36" />
            <circle cx="447.7" cy="240.7" r="36" />
            <circle cx="726.3" cy="338.3" r="36" />
            <circle cx="932.2" cy="507.8" r="36" />
            <circle cx="760.4" cy="584.3" r="36" />
            <circle cx="804.3" cy="781.5" r="36" />
            <circle cx="541.3" cy="712.1" r="36" />
            <circle cx="533.4" cy="894.1" r="36" />
            <circle cx="380.8" cy="648.3" r="36" />
            <circle cx="292.7" cy="370.3" r="36" />
            <circle cx="95.2" cy="406.4" r="36" />
            <circle cx="145.4" cy="682.0" r="36" />
        </g>
    </g>

    <g class="text-main" font-size="320">
        <text x="1200" y="600" font-weight="bold">INTERVIEW</text>
        <text x="1200" y="900" font-weight="normal">CREW</text>
    </g>
</svg>