<svg xmlns="http://www.w3.org/2000/svg" width="262" height="44" viewBox="0 0 262 44" fill="none">
    <g clip-path="url(#clip0_39_48)">
        <path
            d="M244.112 32.9342C243.597 31.6577 243.34 29.9064 243.34 27.6818C243.34 25.4572 243.597 23.7182 244.112 22.4603C244.627 21.2038 245.461 20.5764 246.614 20.5764C247.768 20.5764 248.602 21.2038 249.116 22.4603C249.631 23.7167 249.889 25.4572 249.889 27.6818C249.889 29.9064 249.631 31.6577 249.116 32.9342C248.6 34.2122 247.766 34.8505 246.614 34.8505C245.463 34.8505 244.627 34.2122 244.112 32.9342ZM253.103 42.79C254.998 41.9868 256.604 40.8737 257.922 39.4538C259.24 38.0324 260.249 36.3135 260.95 34.2939C261.65 32.2759 262 30.0729 262 27.6818C262 25.2907 261.65 23.0476 260.95 21.0697C260.249 19.0918 259.24 17.3836 257.922 15.9422C256.603 14.5007 254.998 13.3892 253.103 12.606C251.208 11.8244 249.046 11.4313 246.616 11.4313C244.186 11.4313 242.022 11.8229 240.129 12.606C238.234 13.3892 236.628 14.5007 235.309 15.9422C233.99 17.3852 232.982 19.0933 232.282 21.0697C231.58 23.0476 231.232 25.2522 231.232 27.6818C231.232 30.1115 231.58 32.2759 232.282 34.2939C232.982 36.3135 233.991 38.0324 235.309 39.4538C236.628 40.8752 238.234 41.9868 240.129 42.79C242.023 43.5932 244.185 43.9955 246.616 43.9955C249.047 43.9955 251.208 43.5947 253.103 42.79ZM209.604 27.6818C209.604 22.8626 210.757 20.453 213.065 20.453C213.642 20.453 214.124 20.5872 214.517 20.8554C214.909 21.1236 215.206 21.4227 215.413 21.7511V33.6757C215.206 34.0057 214.909 34.3047 214.517 34.5714C214.126 34.8397 213.642 34.9723 213.065 34.9723C210.757 34.9723 209.604 32.5426 209.604 27.6818ZM215.413 43.2525H227.524V0.741518H215.413V20.823C215.206 19.5866 214.918 18.4042 214.548 17.2711C214.177 16.138 213.683 15.139 213.065 14.2741C212.447 13.4092 211.684 12.7201 210.779 12.2037C209.872 11.6888 208.781 11.4313 207.504 11.4313C205.898 11.4313 204.477 11.8229 203.242 12.606C202.005 13.3892 200.965 14.5007 200.121 15.9422C199.277 17.3852 198.628 19.0933 198.174 21.0697C197.721 23.0476 197.494 25.2522 197.494 27.6818C197.494 30.1115 197.721 32.3268 198.174 34.3248C198.628 36.3228 199.277 38.0432 200.121 39.4847C200.965 40.9277 202.005 42.0392 203.242 42.8208C204.478 43.6024 205.898 43.9955 207.504 43.9955C208.781 43.9955 209.872 43.7381 210.779 43.2232C211.685 42.7083 212.447 42.0176 213.065 41.1527C213.683 40.2879 214.177 39.2889 214.548 38.1558C214.918 37.0227 215.206 35.8387 215.413 34.6038V43.254V43.2525ZM177.784 35.7138C177.29 35.2606 177.043 34.6624 177.043 33.9224C177.043 33.0992 177.259 32.4918 177.69 32.1002C178.124 31.7086 178.751 31.3078 179.574 30.8946L180.254 30.6479C180.707 30.4414 181.057 30.2672 181.306 30.1222C181.552 29.9789 181.759 29.8247 181.924 29.6582V35.7755C181.677 35.9404 181.376 36.0838 181.028 36.2071C180.677 36.3305 180.256 36.3937 179.761 36.3937C178.936 36.3937 178.278 36.167 177.783 35.7138M178.925 41.9852C180.223 40.6471 181.221 38.9482 181.922 36.887V43.2509H194.033V23.171C194.033 21.1529 193.673 19.4016 192.953 17.9186C192.231 16.4355 191.212 15.2207 189.894 14.2726C188.574 13.326 186.979 12.6153 185.106 12.1405C183.231 11.6672 181.141 11.4298 178.834 11.4298C177.268 11.4298 175.827 11.5531 174.51 11.7998C173.19 12.048 172.008 12.3563 170.956 12.7263C169.907 13.0963 169.009 13.4987 168.269 13.9319C167.528 14.3635 166.93 14.7458 166.478 15.0742V23.2311C167.425 22.4895 168.712 21.8205 170.34 21.2223C171.966 20.6257 173.955 20.3266 176.303 20.3266C178.486 20.3266 179.969 20.6149 180.752 21.1915C181.534 21.7681 181.927 22.4263 181.927 23.1694C181.927 23.7861 181.742 24.2717 181.37 24.6216C181 24.9716 180.217 25.2707 179.022 25.5173L175.13 26.4439C173.523 26.8139 172.102 27.2471 170.866 27.7404C169.629 28.2353 168.599 28.8535 167.776 29.5935C166.951 30.335 166.324 31.2214 165.892 32.2497C165.459 33.2795 165.243 34.4959 165.243 35.8957C165.243 38.4502 165.985 40.4374 167.468 41.8588C168.951 43.2802 170.927 43.9909 173.4 43.9909C175.873 43.9909 177.632 43.3203 178.93 41.9821M159.869 43.2185C161.145 42.8686 161.97 42.5911 162.34 42.3845V33.981C162.052 34.0642 161.599 34.166 160.98 34.2893C160.362 34.4127 159.599 34.4759 158.694 34.4759C156.263 34.4759 154.39 33.8577 153.072 32.6228C151.752 31.3864 151.094 29.7399 151.094 27.6787C151.094 25.6175 151.752 24.0327 153.072 22.7979C154.39 21.5615 156.263 20.9448 158.694 20.9448C159.601 20.9448 160.362 20.9972 160.98 21.099C161.599 21.2023 162.052 21.3164 162.34 21.4397V13.0362C161.969 12.8311 161.135 12.5413 159.838 12.1713C158.54 11.7998 156.841 11.6148 154.74 11.6148C152.227 11.6148 149.992 12.0279 148.035 12.8512C146.079 13.6759 144.431 14.7983 143.093 16.2181C141.753 17.6395 140.734 19.3292 140.034 21.2855C139.333 23.2419 138.983 25.374 138.983 27.6803C138.983 29.9866 139.333 32.1819 140.034 34.1367C140.734 36.093 141.764 37.7827 143.124 39.2041C144.483 40.6255 146.151 41.737 148.128 42.5402C150.106 43.3434 152.35 43.7458 154.863 43.7458C156.923 43.7458 158.591 43.57 159.867 43.2201M115.997 43.2509H128.108V24.5291C128.808 23.9526 129.6 23.5194 130.487 23.2311C131.372 22.9428 132.536 22.7979 133.977 22.7979C134.8 22.7979 135.491 22.8287 136.047 22.8904C136.604 22.952 137.005 23.0245 137.253 23.1062V12.0495C137.046 11.9663 136.747 11.8846 136.357 11.8013C135.966 11.7196 135.44 11.678 134.782 11.678C133.092 11.678 131.888 12.2253 131.167 13.3152C130.445 14.4067 129.816 16.1056 129.283 18.4119L128.108 23.7259V12.1728H115.997V43.2525V43.2509ZM99.3145 43.2509H111.426V12.1728H99.3145V43.2525V43.2509ZM99.3145 9.3285H111.426V0.741518H99.3145V9.33004V9.3285ZM78.7397 35.7123C78.2448 35.259 77.9982 34.6609 77.9982 33.9209C77.9982 33.0976 78.2155 32.4902 78.6472 32.0986C79.0804 31.7071 79.7079 31.3062 80.5311 30.8931L81.211 30.6464C81.6642 30.4398 82.0142 30.2656 82.2624 30.1207C82.509 29.9773 82.7156 29.8232 82.8806 29.6567V35.7739C82.6324 35.9389 82.3333 36.0823 81.9849 36.2056C81.6349 36.3289 81.2125 36.3921 80.7192 36.3921C79.8944 36.3921 79.2361 36.1655 78.7412 35.7123M79.8836 41.9837C81.1817 40.6455 82.1791 38.9466 82.8806 36.8855V43.2494H94.9918V23.171C94.9918 21.1529 94.631 19.4016 93.9095 17.9186C93.188 16.4355 92.169 15.2207 90.8509 14.2726C89.5312 13.326 87.9356 12.6153 86.0625 12.1405C84.1879 11.6672 82.0974 11.4298 79.7911 11.4298C78.2248 11.4298 76.7834 11.5531 75.4668 11.7998C74.1471 12.048 72.9647 12.3563 71.9133 12.7263C70.8634 13.0963 69.9662 13.4987 69.2262 13.9319C68.4847 14.3635 67.8865 14.7458 67.4348 15.0742V23.2311C68.3829 22.4895 69.6686 21.8205 71.2966 21.2223C72.9231 20.6257 74.9118 20.3266 77.2597 20.3266C79.4427 20.3266 80.9258 20.6149 81.7089 21.1915C82.4905 21.7681 82.8837 22.4263 82.8837 23.1694C82.8837 23.7861 82.6987 24.2717 82.3271 24.6216C81.9556 24.9716 81.174 25.2707 79.9792 25.5173L76.0865 26.4439C74.4801 26.8139 73.0587 27.2471 71.8239 27.7404C70.5875 28.2353 69.5576 28.8535 68.7344 29.5935C67.9096 30.335 67.2822 31.2214 66.8505 32.2497C66.4189 33.2795 66.203 34.4959 66.203 35.8957C66.203 38.4502 66.9446 40.4374 68.4276 41.8588C69.9107 43.2802 71.8871 43.9909 74.3599 43.9909C76.8327 43.9909 78.5917 43.3203 79.8898 41.9821M59.9023 43.2494V20.823H64.5982V12.1728H59.9023V11.9262C59.9023 9.66149 61.077 8.52684 63.4234 8.52684C64 8.52684 64.4533 8.54842 64.7832 8.58851C65.1131 8.63013 65.4014 8.6918 65.648 8.77505V0.741518C65.2765 0.618186 64.535 0.46248 63.4234 0.277482C62.3119 0.0924841 61.0339 -0.0015564 59.5924 -0.0015564C51.7239 -0.0015564 47.7911 3.95277 47.7911 11.8614V12.1713H44.2068V20.8215H47.7911V43.2509H59.9023V43.2494Z"
            fill="black"></path>
        <path
            d="M34.6563 43.2155L34.647 34.2724L25.7039 34.2816V36.2858L31.482 36.2796L30.5015 37.2601C28.0256 39.6974 24.9331 41.1157 21.7928 41.2545C18.6046 41.3963 15.5676 40.1738 13.2474 37.8151C11.9817 36.5309 11.0243 35.0232 10.4077 33.3859C11.1138 33.446 11.8383 33.4522 12.5752 33.4029C16.2567 33.1578 19.8703 31.5375 22.4911 28.9583C23.2373 28.2245 25.058 26.2465 25.8411 23.7583C26.6397 21.2239 26.1263 18.9345 24.3565 17.1369C22.9182 15.677 21.2455 14.9355 19.3816 14.9355H19.3585C15.4843 14.9478 12.2083 18.2146 11.9755 18.452C9.18362 21.2038 7.62964 24.8776 7.5988 28.798C7.59418 29.4578 7.63118 30.1115 7.71134 30.7559C6.53507 30.315 5.50062 29.6644 4.67584 28.8257C0.639804 24.7249 1.24721 18.4335 6.15274 13.528C9.17128 10.5094 12.9853 6.78478 14.9833 4.84076L15.0033 10.4616L17.0075 10.4539L16.9751 1.5108L8.03201 1.54318L8.03971 3.54732L13.4586 3.52728C11.4252 5.50676 7.69901 9.14659 4.73596 12.1096C1.87775 14.9709 0.249767 18.2546 0.026228 21.6093C-0.189603 24.8436 0.9543 27.9069 3.24673 30.2363C4.5448 31.5544 6.24369 32.4979 8.16921 33.0051C8.83675 35.3253 10.0762 37.4543 11.8183 39.2226C14.4006 41.8465 17.7459 43.271 21.2948 43.271C21.4891 43.271 21.6848 43.2663 21.8806 43.2586C25.5158 43.0983 29.077 41.4765 31.9121 38.6846L32.646 37.9507L32.6521 43.2201H34.6563V43.2155ZM9.6014 28.8165C9.62761 25.4279 10.9735 22.2521 13.3877 19.8749L13.4031 19.8595C13.4309 19.8302 16.286 16.9458 19.3724 16.9412H19.3816C20.7074 16.9412 21.8668 17.4653 22.929 18.5445C26.4131 22.0841 21.6417 26.9835 21.0851 27.5307C18.802 29.7785 15.6508 31.1906 12.4411 31.4034C11.5393 31.4635 10.6605 31.428 9.8234 31.3016C9.66924 30.4907 9.59524 29.6598 9.6014 28.8165Z"
            fill="black"></path>
    </g>
    <defs>
        <clipPath id="clip0_39_48">
            <rect width="262" height="43.994" fill="white"></rect>
        </clipPath>
    </defs>
</svg>